<?xml version="1.0" encoding="UTF-8" standalone="no"?>
<!-- Created with Inkscape (http://www.inkscape.org/) -->

<svg
   xmlns:dc="http://purl.org/dc/elements/1.1/"
   xmlns:cc="http://creativecommons.org/ns#"
   xmlns:rdf="http://www.w3.org/1999/02/22-rdf-syntax-ns#"
   xmlns:svg="http://www.w3.org/2000/svg"
   xmlns="http://www.w3.org/2000/svg"
   xmlns:sodipodi="http://sodipodi.sourceforge.net/DTD/sodipodi-0.dtd"
   xmlns:inkscape="http://www.inkscape.org/namespaces/inkscape"
   width="32"
   height="24"
   viewBox="0 0 32 24"
   id="svg2"
   version="1.1"
   inkscape:version="0.91 r13725"
   sodipodi:docname="locked.svg"
   inkscape:export-filename="/home/jl/Prog/doxygen_style/sync_off.png"
   inkscape:export-xdpi="90"
   inkscape:export-ydpi="90">
  <defs
     id="defs4" />
  <sodipodi:namedview
     id="base"
     pagecolor="#ffffff"
     bordercolor="#666666"
     borderopacity="1.0"
     inkscape:pageopacity="0.0"
     inkscape:pageshadow="2"
     inkscape:zoom="13.324543"
     inkscape:cx="26.255315"
     inkscape:cy="10.677064"
     inkscape:document-units="px"
     inkscape:current-layer="layer1"
     showgrid="false"
     units="px"
     inkscape:window-width="2560"
     inkscape:window-height="1357"
     inkscape:window-x="0"
     inkscape:window-y="0"
     inkscape:window-maximized="1"
     inkscape:object-nodes="true"
     inkscape:object-paths="false"
     inkscape:snap-smooth-nodes="false" />
  <metadata
     id="metadata7">
    <rdf:RDF>
      <cc:Work
         rdf:about="">
        <dc:format>image/svg+xml</dc:format>
        <dc:type
           rdf:resource="http://purl.org/dc/dcmitype/StillImage" />
        <dc:title />
      </cc:Work>
    </rdf:RDF>
  </metadata>
  <g
     inkscape:label="Layer 1"
     inkscape:groupmode="layer"
     id="layer1"
     transform="translate(0,-1028.3622)">
    <path
       style="color:#000000;font-style:normal;font-variant:normal;font-weight:normal;font-stretch:normal;font-size:medium;line-height:normal;font-family:sans-serif;text-indent:0;text-align:start;text-decoration:none;text-decoration-line:none;text-decoration-style:solid;text-decoration-color:#000000;letter-spacing:normal;word-spacing:normal;text-transform:none;direction:ltr;block-progression:tb;writing-mode:lr-tb;baseline-shift:baseline;text-anchor:start;white-space:normal;clip-rule:nonzero;display:inline;overflow:visible;visibility:visible;opacity:1;isolation:auto;mix-blend-mode:normal;color-interpolation:sRGB;color-interpolation-filters:linearRGB;solid-color:#000000;solid-opacity:1;fill:#000000;fill-opacity:1;fill-rule:nonzero;stroke:none;stroke-width:1.99999976;stroke-linecap:butt;stroke-linejoin:miter;stroke-miterlimit:4;stroke-dasharray:none;stroke-dashoffset:0;stroke-opacity:1;color-rendering:auto;image-rendering:auto;shape-rendering:auto;text-rendering:auto;enable-background:accumulate"
       d="m 22.025391,1028.4638 c -2.091776,0 -4.005127,0.5467 -5.472656,1.5136 -1.467527,0.9669 -2.539063,2.4504 -2.539063,4.1895 l 0,3.3203 -0.03516,0 c -0.66401,0 -1.199219,0.5352 -1.199219,1.1992 l 0,12.3946 c 0,0.664 0.535209,1.1992 1.199219,1.1992 l 16.09375,0 c 0.66401,0 1.199219,-0.5352 1.199219,-1.1992 l 0,-12.3946 c 0,-0.664 -0.535209,-1.1992 -1.199219,-1.1992 l -0.0332,0 0,-3.3184 c 1e-6,-1.7392 -1.073489,-3.2226 -2.541016,-4.1894 -1.467529,-0.967 -3.380879,-1.5117 -5.472656,-1.5117 l 0,-0 z m 0,2.4687 c 1.652802,0 3.13078,0.4556 4.117187,1.1055 0.98555,0.6494 1.428917,1.4033 1.429688,2.1308 l 0,3.3184 -11.09375,0 0,-3.3184 c 0,-0.7281 0.445234,-1.4808 1.43164,-2.1308 0.986407,-0.6499 2.462436,-1.1055 4.115235,-1.1055 z m 0,9.3711 a 2.5810828,2.5810828 0 0 1 2.582031,2.582 2.5810828,2.5810828 0 0 1 -1.214844,2.1875 l 0,3.3164 c 0,0.6641 -0.533255,1.1993 -1.197265,1.1993 l -0.337891,0 c -0.66401,0 -1.199219,-0.5352 -1.199219,-1.1993 l 0,-3.3203 a 2.5810828,2.5810828 0 0 1 -1.21289,-2.1836 2.5810828,2.5810828 0 0 1 2.580078,-2.582 z"
       id="path4201"
       inkscape:connector-curvature="0" />
  </g>
</svg>
