<?xml version="1.0" encoding="UTF-8" standalone="no"?>
<!-- Created with Inkscape (http://www.inkscape.org/) -->

<svg
   xmlns:dc="http://purl.org/dc/elements/1.1/"
   xmlns:cc="http://creativecommons.org/ns#"
   xmlns:rdf="http://www.w3.org/1999/02/22-rdf-syntax-ns#"
   xmlns:svg="http://www.w3.org/2000/svg"
   xmlns="http://www.w3.org/2000/svg"
   xmlns:sodipodi="http://sodipodi.sourceforge.net/DTD/sodipodi-0.dtd"
   xmlns:inkscape="http://www.inkscape.org/namespaces/inkscape"
   width="32"
   height="24"
   viewBox="0 0 32 24"
   id="svg2"
   version="1.1"
   inkscape:version="0.91 r13725"
   sodipodi:docname="unlocked.svg"
   inkscape:export-filename="/home/jl/Prog/doxygen_style/sync_on.png"
   inkscape:export-xdpi="90"
   inkscape:export-ydpi="90">
  <defs
     id="defs4" />
  <sodipodi:namedview
     id="base"
     pagecolor="#ffffff"
     bordercolor="#666666"
     borderopacity="1.0"
     inkscape:pageopacity="0.0"
     inkscape:pageshadow="2"
     inkscape:zoom="16"
     inkscape:cx="15.680822"
     inkscape:cy="16.960528"
     inkscape:document-units="px"
     inkscape:current-layer="layer1"
     showgrid="false"
     units="px"
     inkscape:window-width="2560"
     inkscape:window-height="1357"
     inkscape:window-x="0"
     inkscape:window-y="0"
     inkscape:window-maximized="1"
     inkscape:object-nodes="true"
     inkscape:object-paths="false"
     inkscape:snap-smooth-nodes="false" />
  <metadata
     id="metadata7">
    <rdf:RDF>
      <cc:Work
         rdf:about="">
        <dc:format>image/svg+xml</dc:format>
        <dc:type
           rdf:resource="http://purl.org/dc/dcmitype/StillImage" />
        <dc:title></dc:title>
      </cc:Work>
    </rdf:RDF>
  </metadata>
  <g
     inkscape:label="Layer 1"
     inkscape:groupmode="layer"
     id="layer1"
     transform="translate(0,-1028.3622)">
    <path
       style="color:#000000;clip-rule:nonzero;display:inline;overflow:visible;visibility:visible;opacity:1;isolation:auto;mix-blend-mode:normal;color-interpolation:sRGB;color-interpolation-filters:linearRGB;solid-color:#000000;solid-opacity:1;fill:#000000;fill-opacity:1;fill-rule:nonzero;stroke:none;stroke-width:2;stroke-linecap:butt;stroke-linejoin:miter;stroke-miterlimit:4;stroke-dasharray:none;stroke-dashoffset:0;stroke-opacity:1;color-rendering:auto;image-rendering:auto;shape-rendering:auto;text-rendering:auto;enable-background:accumulate"
       d="M 8.421875 0 C 6.3184399 0 4.3936764 0.5472313 2.9179688 1.5195312 C 1.442262 2.4918313 0.36328125 3.9836219 0.36328125 5.7324219 L 0.36328125 8.796875 L 2.84375 8.796875 L 2.84375 5.7363281 C 2.84375 5.0041281 3.2912981 4.24735 4.2832031 3.59375 C 5.2751082 2.94025 6.7598636 2.4824219 8.421875 2.4824219 C 10.083889 2.4824219 11.570595 2.94025 12.5625 3.59375 C 13.554405 4.24735 14 5.0041281 14 5.7363281 L 14 9.1738281 C 13.455209 9.2898829 13.041016 9.7496281 13.041016 10.330078 L 13.041016 22.794922 C 13.041016 23.462633 13.578383 24 14.246094 24 L 30.429688 24 C 31.097399 24 31.636719 23.462633 31.636719 22.794922 L 31.636719 10.330078 C 31.636719 9.6623673 31.097399 9.125 30.429688 9.125 L 16.478516 9.125 L 16.478516 5.7363281 C 16.478517 3.9874281 15.401488 2.4956375 13.925781 1.5234375 C 12.450074 0.5511375 10.525311 0.00390625 8.421875 0.00390625 L 8.421875 0 z M 22.337891 11.957031 A 2.5954692 2.5954692 0 0 1 24.933594 14.552734 A 2.5954692 2.5954692 0 0 1 23.712891 16.751953 L 23.712891 20.087891 C 23.712891 20.755602 23.175524 21.292969 22.507812 21.292969 L 22.167969 21.292969 C 21.500258 21.292969 20.962891 20.755602 20.962891 20.087891 L 20.962891 16.75 A 2.5954692 2.5954692 0 0 1 19.742188 14.552734 A 2.5954692 2.5954692 0 0 1 22.337891 11.957031 z "
       id="rect4256"
       transform="translate(0,1028.3622)" />
  </g>
</svg>
